# xmcd
#
# Track frame offsets: 
#        200
#        18625
#        37390
#
# Disc length: 753 seconds
#
# Revision: 2
# Processed by: cddbd v1.5.2PL0 Copyright (c) Steve Scherf et al.
# Submitted via: ExactAudioCopy v1.0b1
#
DISCID=2502ef03
DTITLE=Simply Red - Your Mirror Disc 1
DYEAR=1992
DGENRE=Jazz+Funk
TTITLE0=Your Mirror (Live) [CD2 Studio)
TTITLE1=More  (Live)
TTITLE2=Something Got Me Started (Live)
EXTD=YEAR: 2008
EXTT0=Recorded Live In Hamburg, 23/02/92.
EXTT1=Recorded Live In Hamburg, 23/02/92.
EXTT2=Recorded Live In Hamburg, 23/02/92.
PLAYORDER=
